<?xml version="1.0" encoding="UTF-8"?>
<svg id="Layer_1" data-name="Layer 1" xmlns="http://www.w3.org/2000/svg" xmlns:xlink="http://www.w3.org/1999/xlink" viewBox="0 0 1080 287">
  <defs>
    <style>
      .cls-1 {
        fill: none;
      }

      .cls-2 {
        clip-path: url(#clippath-1);
      }

      .cls-3 {
        fill: #f7cb4d;
      }

      .cls-4 {
        fill: #431e37;
      }

      .cls-5 {
        clip-path: url(#clippath);
      }
    </style>
    <clipPath id="clippath">
      <rect class="cls-1" x="58.91" y="26.08" width="962.18" height="234.83"/>
    </clipPath>
    <clipPath id="clippath-1">
      <rect class="cls-1" x="58.91" y="26.08" width="962.18" height="234.83"/>
    </clipPath>
  </defs>
  <g class="cls-5">
    <path class="cls-4" d="M984.75,132.14h11.04c3.87,0,6.68.89,8.42,2.66,1.74,1.78,2.62,4.15,2.62,7.14s-.89,5.49-2.66,7.33c-1.78,1.84-4.57,2.76-8.37,2.76h-11.04v-19.88ZM1021.09,187.6l-14.46-29.21h-14.37l13.6,29.21h15.22ZM984.75,187.6v-25.88h11.8c5.52,0,10.04-.94,13.56-2.81s6.12-4.36,7.8-7.47c1.68-3.11,2.52-6.44,2.52-9.99,0-3.81-.86-7.25-2.57-10.32-1.71-3.08-4.33-5.53-7.85-7.37-3.52-1.84-7.98-2.76-13.37-2.76h-25.21v66.59h13.32ZM961.86,187.6v-10.75h-30.73v-17.89h27.87v-10.37h-27.87v-16.84h30.73v-10.75h-44.05v66.59h44.05ZM883.36,187.65c2.44-.73,4.58-1.79,6.42-3.19,1.84-1.4,3.42-3.08,4.76-5.04l1.05,8.18h12.27v-36.91h-29.4v9.89h16.08c-.63,4.76-2.41,8.67-5.33,11.75-2.92,3.08-7.23,4.61-12.94,4.61-4,0-7.44-.86-10.32-2.57-2.89-1.71-5.09-4.22-6.61-7.52-1.52-3.3-2.28-7.29-2.28-11.99s.76-8.74,2.28-12.13c1.52-3.39,3.77-6.01,6.75-7.85,2.98-1.84,6.6-2.76,10.85-2.76,4,0,7.25.79,9.75,2.38,2.51,1.59,4.23,3.81,5.18,6.66h14.84c-1.52-6.66-4.88-11.88-10.08-15.65-5.2-3.77-11.73-5.66-19.6-5.66-6.98,0-12.97,1.49-17.98,4.47-5.01,2.98-8.86,7.09-11.56,12.32-2.7,5.23-4.04,11.27-4.04,18.12s1.3,12.73,3.9,17.84c2.6,5.11,6.26,9.07,10.99,11.89,4.72,2.82,10.23,4.23,16.51,4.23,3.23,0,6.07-.36,8.51-1.09M791.26,187.6v-45.09l30.16,45.09h13.32v-66.59h-13.32v45.19l-30.16-45.19h-13.32v66.59h13.32ZM767.28,187.6v-10.75h-30.73v-17.89h27.87v-10.37h-27.87v-16.84h30.73v-10.75h-44.05v66.59h44.05ZM703.63,185.98c3.52-1.84,6.18-4.27,7.99-7.28,1.81-3.01,2.71-6.29,2.71-9.85,0-4.06-.82-7.33-2.47-9.8-1.66-2.47-3.87-4.49-6.66-6.04-2.8-1.55-5.87-2.9-9.23-4.04-2.16-.7-4.15-1.38-5.99-2.05-1.85-.67-3.46-1.38-4.85-2.14-1.4-.76-2.47-1.66-3.23-2.71s-1.14-2.36-1.14-3.95.38-2.9,1.14-3.95,1.79-1.84,3.09-2.38c1.29-.54,2.77-.78,4.42-.71,1.77,0,3.33.38,4.66,1.14,1.33.76,2.39,1.76,3.19,3,.79,1.24,1.19,2.58,1.19,4.04h14.37c-.13-4-1.19-7.45-3.19-10.37-2-2.92-4.71-5.15-8.13-6.71-3.42-1.55-7.42-2.33-11.99-2.33s-8.29.76-11.75,2.28c-3.46,1.52-6.15,3.71-8.09,6.56-1.94,2.85-2.9,6.31-2.9,10.37,0,4.76,1.38,8.58,4.14,11.46,2.76,2.89,6.76,5.18,12.03,6.9,2.28.76,4.48,1.51,6.61,2.24,2.12.73,3.98,1.54,5.57,2.43,1.58.89,2.84,1.95,3.76,3.19.91,1.24,1.38,2.74,1.38,4.52,0,1.65-.42,3.04-1.24,4.19-.82,1.14-1.95,2.03-3.38,2.66-1.43.63-3.09.95-4.99.95-2.28,0-4.23-.44-5.85-1.33-1.62-.89-2.89-2.09-3.81-3.62-.92-1.52-1.44-3.23-1.57-5.14h-14.08c.13,4.5,1.28,8.34,3.47,11.51,2.19,3.17,5.18,5.58,8.99,7.23,3.81,1.65,8.09,2.47,12.84,2.47,5.14,0,9.47-.92,12.99-2.76M648,185.98c3.52-1.84,6.18-4.27,7.99-7.28,1.81-3.01,2.71-6.29,2.71-9.85,0-4.06-.82-7.33-2.47-9.8-1.65-2.47-3.87-4.49-6.66-6.04-2.79-1.55-5.87-2.9-9.23-4.04-2.16-.7-4.15-1.38-5.99-2.05s-3.46-1.38-4.85-2.14c-1.4-.76-2.47-1.66-3.23-2.71-.76-1.05-1.14-2.36-1.14-3.95s.38-2.9,1.14-3.95c.76-1.05,1.79-1.84,3.09-2.38,1.3-.54,2.77-.78,4.42-.71,1.78,0,3.33.38,4.66,1.14,1.33.76,2.39,1.76,3.19,3,.79,1.24,1.19,2.58,1.19,4.04h14.37c-.13-4-1.19-7.45-3.19-10.37-2-2.92-4.71-5.15-8.13-6.71-3.42-1.55-7.42-2.33-11.99-2.33s-8.29.76-11.75,2.28c-3.46,1.52-6.15,3.71-8.09,6.56-1.93,2.85-2.9,6.31-2.9,10.37,0,4.76,1.38,8.58,4.14,11.46,2.76,2.89,6.77,5.18,12.03,6.9,2.28.76,4.49,1.51,6.61,2.24s3.98,1.54,5.57,2.43c1.59.89,2.84,1.95,3.76,3.19s1.38,2.74,1.38,4.52c0,1.65-.41,3.04-1.24,4.19s-1.95,2.03-3.38,2.66c-1.43.63-3.09.95-4.99.95-2.28,0-4.23-.44-5.85-1.33-1.62-.89-2.89-2.09-3.81-3.62-.92-1.52-1.44-3.23-1.57-5.14h-14.08c.13,4.5,1.28,8.34,3.47,11.51,2.19,3.17,5.18,5.58,8.99,7.23,3.81,1.65,8.09,2.47,12.84,2.47,5.14,0,9.47-.92,12.99-2.76M602.43,187.6v-10.75h-30.73v-17.89h27.87v-10.37h-27.87v-16.84h30.73v-10.75h-44.05v66.59h44.05ZM489.06,187.6v-43.95l17.22,34.63h10.56l17.31-34.72v44.05h13.32v-66.59h-15.98l-19.88,41-19.98-41h-15.89v66.59h13.32Z"/>
  </g>
  <path class="cls-3" d="M294.68,250.76l10.74,10.16,68.34-72.29,45.64,49.53,10.86-10.03-56.37-61.18-79.21,83.82ZM285.65,98.91l51.46,54.27-52.38,56.19,10.81,10.09v-.02l61.85-66.35-61.01-64.36-10.73,10.17ZM389.76,153.1l99.45,104.54,10.71-10.2-89.66-94.24,89.83-92.54-10.6-10.29-99.72,102.73ZM285.67,26.09l-10.67,10.25,98.86,102.9,62.27-65.77-10.74-10.17-51.6,54.51-88.11-91.72Z"/>
  <g class="cls-2">
    <path class="cls-4" d="M72.88,132.55h10.52c3.54,0,6.11.82,7.73,2.47,1.61,1.64,2.42,3.86,2.42,6.65s-.82,5.12-2.47,6.8c-1.65,1.67-4.21,2.51-7.68,2.51h-10.52v-18.44ZM108.35,186.09l-13.87-28.49h-15.09l13.13,28.49h15.82ZM72.88,186.09v-25.04h11.36c5.46,0,9.93-.93,13.41-2.79,3.47-1.86,6.03-4.31,7.68-7.36,1.64-3.04,2.47-6.3,2.47-9.78,0-3.73-.86-7.1-2.56-10.15-1.71-3.04-4.3-5.48-7.78-7.31-3.47-1.83-7.88-2.74-13.22-2.74h-25.33v65.17h13.97Z"/>
  </g>
  <polygon class="cls-4" points="159.91 186.09 159.91 174.82 130.21 174.82 130.21 158.34 157.12 158.34 157.12 147.54 130.21 147.54 130.21 132.19 159.91 132.19 159.91 120.92 116.24 120.92 116.24 186.09 159.91 186.09"/>
  <path class="cls-4" d="M216.54,171.84l-3.54-10.8h-34.26l-3.63,10.8h41.43ZM179.39,186.09l17.04-49.44,17.04,49.44h14.71l-23.74-65.17h-15.92l-23.74,65.17h14.62Z"/>
  <polygon class="cls-4" points="275.16 186.09 275.16 175.29 247.04 175.29 247.04 120.92 233.08 120.92 233.08 186.09 275.16 186.09"/>
</svg>